<?xml version="1.0" encoding="UTF-8"?>
<svg id="Layer_2" data-name="Layer 2" xmlns="http://www.w3.org/2000/svg" viewBox="0 0 3588.31 309.21">
  <defs>
    <style>
      .cls-1 {
        fill: #023e8a;
      }
    </style>
  </defs>
  <g id="Layer_1-2" data-name="Layer 1">
    <g>
      <g>
        <path class="cls-1" d="M206.88,194.07c-10.37,67.1-42.41,100.43-80.52,100.43-46.3,0-61.45-56.29-61.45-140.24S76.61,9.68,120.31,9.68c38.54,0,71.42,42.84,83.98,114.26h8.24l-3.48-120.34h-6.48c-4.32,18.61-10.4,21.66-17.31,21.66-3.89,0-10.37-2.62-15.15-6.08C155.81,9.25,137.63,1.88,120.74,1.88,52.78,1.88,0,66.81,0,155.98s50.62,153.24,118.15,153.24c49.78,0,89.17-41.57,98.27-115.15h-9.53Z"/>
        <path class="cls-1" d="M862.45,177.62c66.23,0,110.37-31.17,110.37-87.87,0-53.24-37.65-83.55-104.32-83.55h-119.45v7.8h6.92c17.75,0,25.1,5.62,25.1,26.39v227.68c0,20.34-6.92,26.42-25.1,26.42h-6.92v7.78h128.12v-7.78h-12.1c-18.2,0-25.12-5.62-25.12-26.42v-90.46h22.5ZM839.95,39.97c0-20.77,6.92-25.96,23.37-25.96h3.91c30.71,0,42.41,31.17,42.41,77.47s-11.26,77.47-47.62,77.47h-22.07V39.97Z"/>
        <path class="cls-1" d="M482.31,154.2C473.06,84.61,403.51-8.04,338.96.56c-64.98,8.65-109.89,107.61-99.23,187.7,12.7,95.36,74.59,127.18,139.57,118.53,64.09-8.55,115.7-57.23,103-152.59ZM378.73,299.03c-46.11,6.15-64.69-56.24-75.69-138.78-11-82.51-9.58-145.82,36.5-151.96,45.24-6,64.26,56.29,75.24,138.83,11,82.54,9.17,145.89-36.05,151.92Z"/>
        <path class="cls-1" d="M646.97.56c-56.65-7.54-117.14,62.92-137.36,127.32l.41.19,28.84,37.01,15.61.67,12.44,20.34c.96-12.37,2.43-25.41,4.25-38.98,10.97-82.54,30.02-144.83,75.24-138.83,46.08,6.15,47.5,69.45,36.53,151.96-2.33,17.31-4.95,33.69-8.12,48.77l18.06-15.92,1.44-15.95-6.8-7.88,11.26,5.38,2.11,17.84,17.03,18.83,9.92-8.84,13.11,12.54c2.23-8.29,3.99-17.22,5.26-26.78,10.69-80.09-34.24-179.05-99.23-187.7ZM727.92,212.46l-24.71,21.35,9.8-16.19-15.39-17.07-22.98,12.68-.74.22c-11.98,54.42-31.15,90.32-66.66,85.59-37.01-4.9-44.95-48.22-40.63-109l-17.99-14.36-15.15-.67-27.47-33.62c-.98,4.35-1.78,8.64-2.35,12.82-12.7,95.36,38.9,144.04,103.02,152.59,56.19,7.49,110.11-15.32,131.82-83.35l-10.54-10.97Z"/>
      </g>
      <path class="cls-1" d="M1168.81,141.12c-61.91-19.04-75.74-40.25-75.74-70.99,0-33.33,19.91-64.93,56.27-64.93,33.76,0,69.26,27.71,85.28,114.72h6.05l-2.59-117.74h-5.19c-5.21,22.07-9.97,29.01-16.45,29.01-6.08,0-9.97-4.78-15.15-9.1-15.15-12.56-29.44-20.77-52.38-20.77-41.14,0-69.69,35.49-69.69,76.61,0,63.64,53.24,75.77,84.84,86.57,31.15,10.4,77.47,29.01,77.47,72.28s-30.31,65.8-64.07,65.8c-48.46,0-84.82-29.87-94.35-115.56h-6.05l2.59,119.45h5.19c3.03-17.31,7.8-27.69,14.72-27.69,5.19,0,9.53,3.89,13.42,6.48,6.48,4.32,23.8,21.2,63.61,21.2s75.77-30.28,75.77-78.77-31.6-70.12-83.55-86.57Z"/>
      <path class="cls-1" d="M1456.65,188.74c-4.75,73.58-17.31,107.34-78.33,107.34h-35.06c-18.18,0-25.98-4.35-25.98-25.98v-119.47h27.71c38.52,0,44.14,29.44,44.59,65.37h4.32V83.56h-4.32c-.46,35.06-6.51,61.45-44.59,61.45h-27.71V37.24c0-22.07,7.8-25.96,25.98-25.96h30.31c63.61,0,70.99,20.77,76.17,98.24h4.32l-3.89-103.89h-191.75v5.64h12.13c18.18,0,24.66,3.89,24.66,26.39v232c0,22.07-6.48,26.42-24.66,26.42h-12.13v5.62h196.08l6.94-112.96h-4.78Z"/>
      <path class="cls-1" d="M1680.44,265.35L1594.3.01h-5.62l-80.95,244.99c-10.81,33.33-19.04,49.78-40.25,51.08v5.62h75.31v-5.62h-8.21c-14.29,0-22.5-6.94-22.5-22.53,0-12.1,4.32-25.96,9.94-45l6.92-22.5h109.53l11.67,36.36c5.64,17.31,9.1,30.28,9.1,38.09,0,8.64-9.53,15.59-25.12,15.59h-10.81v5.62h92.62v-5.62c-16.02-.43-27.28-4.78-35.49-30.74ZM1530.25,200.41l53.67-165.77,53.24,165.77h-106.91Z"/>
      <path class="cls-1" d="M1931.92,234.61h-5.62c1.73,37.22-6.48,49.78-16.88,49.78-13.86,0-16.88-9.53-32.04-64.94-11.24-41.11-24.66-53.67-43.27-61.02v-.86c46.73-11.7,69.26-38.52,69.26-78.36,0-48.46-39.38-73.58-97.4-73.58h-97.81v5.64h12.1c18.61,0,24.69,5.62,24.69,25.96v232c0,20.34-4.75,26.85-24.69,26.85h-12.1v5.62h99.97v-5.62h-16.45c-18.18,0-24.66-6.51-24.66-26.85v-108.64h35.49c35.93,0,49.35,1.3,58.86,78.33,6.51,51.94,17.75,66.66,39.84,66.66,18.61,0,35.49-20.77,30.71-70.99ZM1767.01,154.98V36.37c0-20.77,7.8-25.1,25.98-25.1h12.97c67.53,0,72.28,43.71,72.28,68.8,0,30.74-10.81,74.9-61.89,74.9h-49.35Z"/>
      <path class="cls-1" d="M2129.75,193.5c-9.1,67.1-38.98,107.78-85.71,107.78-57.56,0-80.95-64.07-80.95-147.59,0-94.81,27.28-148.48,77.93-148.48,36.36,0,72.28,33.76,84.39,110.37h5.64l-3.03-115.12h-4.35c-4.32,21.2-8.65,29.44-13.83,29.44-3.48,0-7.37-3.05-12.13-6.08-16.02-11.24-34.63-22.5-57.13-22.5-50.21,0-103.45,52.38-103.45,154.1,0,96.08,51.94,151.92,106.48,151.92,50.21,0,83.09-40.68,92.62-113.83h-6.48Z"/>
      <path class="cls-1" d="M2377.34,11.28h12.1v-5.64h-96.51v5.64h12.13c17.75,0,25.09,3.46,25.09,25.96v110.8h-128.55V37.24c0-22.07,7.78-25.96,25.96-25.96h11.26v-5.64h-96.08v5.64h12.1c18.18,0,24.69,3.89,24.69,25.96v232.87c0,22.07-6.51,25.98-24.69,25.98h-12.1v5.62h96.08v-5.62h-11.26c-18.18,0-25.96-3.91-25.96-25.98v-116.42h128.55v116.42c0,22.07-7.35,25.98-25.09,25.98h-12.13v5.62h96.51v-5.62h-12.1c-18.61,0-24.69-3.91-24.69-25.98V37.24c0-22.5,6.08-25.96,24.69-25.96Z"/>
      <path class="cls-1" d="M2612.65,174.02v5.62h12.56c17.75,0,22.93,3.03,22.93,26.42v36.36c0,26.82-21.64,59.29-61.45,59.29-53.67,0-80.95-58.86-80.95-149.75s27.28-146.75,77.9-146.75c36.36,0,72.31,33.76,84.41,110.39h5.64l-3.05-115.15h-4.32c-4.32,21.2-7.78,29.44-13.42,29.44-3.46,0-7.35-3.03-12.1-6.08-16.02-11.24-34.63-22.5-57.59-22.5-50.19,0-103.43,52.81-103.43,152.37,0,92.62,49.76,151.92,106.91,151.92,19.04,0,34.2-6.92,47.6-15.99,5.64-3.91,9.53-6.94,15.15-6.94s11.69,6.05,16.88,23.37h3.03v-99.97c0-21.2,7.8-26.42,26.85-26.42h2.59v-5.62h-86.14Z"/>
      <path class="cls-1" d="M2920.42,234.61h-5.64c1.73,37.22-6.48,49.78-16.88,49.78-13.83,0-16.88-9.51-32.01-64.91-11.26-41.14-24.69-53.7-43.3-61.04v-.86c46.76-11.7,69.26-38.52,69.26-78.34,0-48.48-39.38-73.6-97.4-73.6h-97.81v5.64h12.13c18.61,0,24.66,5.62,24.66,25.96v232c0,20.36-4.75,26.85-24.66,26.85h-12.13v5.62h100v-5.62h-16.45c-18.18,0-24.69-6.48-24.69-26.85v-108.64h35.49c35.93,0,49.35,1.3,58.88,78.36,6.48,51.94,17.75,66.64,39.82,66.64,18.61,0,35.49-20.77,30.74-70.99ZM2755.49,154.98V36.37c0-20.77,7.8-25.09,25.98-25.09h12.97c67.53,0,72.31,43.71,72.31,68.83,0,30.71-10.83,74.88-61.91,74.88h-49.35Z"/>
      <path class="cls-1" d="M3032.09.01c-60.16,0-106.48,65.8-106.48,154.53s46.32,152.78,105.62,152.78,106.91-67.94,106.91-154.51S3091.38.01,3032.09.01ZM3032.09,303.44c-59.72,0-80.5-72.28-80.5-150.62s19.91-148.91,79.63-148.91,80.95,72.28,80.95,150.64-19.93,148.89-80.09,148.89Z"/>
      <path class="cls-1" d="M3308.25,5.63v5.64h1.73c32.04,0,39.38,14.29,39.38,54.97v145.86c0,48.05-25.53,85.71-74.88,85.71-54.97,0-74.88-33.33-74.88-80.09V37.67c0-21.64,6.92-26.39,25.96-26.39h10.4v-5.64h-96.11v5.64h12.99c19.04,0,24.66,5.62,24.66,26.39v169.69c0,59.29,22.09,98.67,89.6,98.67,63.64,0,90.05-41.98,90.05-95.65V66.25c0-39.82,7.35-54.97,34.6-54.97h5.64v-5.64h-89.17Z"/>
      <path class="cls-1" d="M3490.04,161.9c51.94,0,98.27-23.8,98.27-80.5,0-53.24-40.68-75.76-93.06-75.76h-102.16v5.64h12.1c18.18,0,24.69,5.19,24.69,25.96v232.87c0,21.23-6.51,25.98-24.69,25.98h-12.1v5.62h103.02v-5.62h-18.18c-18.61,0-25.98-5.19-25.98-25.98v-108.21h38.09ZM3451.96,36.8c0-20.77,7.8-25.53,25.98-25.53h12.97c67.53,0,72.28,41.98,72.28,71.85,0,24.23-5.19,73.15-74.44,73.15h-36.79V36.8Z"/>
    </g>
  </g>
</svg>